<?xml version="1.0" standalone="no"?><!DOCTYPE svg PUBLIC "-//W3C//DTD SVG 1.1//EN" "http://www.w3.org/Graphics/SVG/1.1/DTD/svg11.dtd"><svg t="1571153260567" class="icon" viewBox="0 0 1024 1024" version="1.1" xmlns="http://www.w3.org/2000/svg" p-id="9530" xmlns:xlink="http://www.w3.org/1999/xlink" width="48" height="48"><defs><style type="text/css"></style></defs><path d="M512 73.142857c242.285714 0 438.857143 196.571429 438.857143 438.857143 0 193.718857-125.696 358.290286-299.995429 416.585143-22.272 3.986286-30.281143-9.728-30.281143-21.138286 0-14.299429 0.585143-61.696 0.585143-120.576 0-41.142857-13.714286-67.437714-29.696-81.152 97.718857-10.861714 200.557714-48.018286 200.557715-216.576 0-48.018286-17.152-86.857143-45.129143-117.723428 4.571429-11.446857 19.419429-55.990857-4.571429-116.553143-36.571429-11.446857-120.576 45.129143-120.576 45.129143a412.525714 412.525714 0 0 0-219.428571 0S318.317714 243.419429 281.746286 254.866286c-23.990857 60.562286-9.142857 105.142857-4.571429 116.553143-28.013714 30.866286-45.129143 69.705143-45.129143 117.723428 0 168.009143 102.290286 205.714286 200.009143 216.576-12.580571 11.446857-23.990857 30.866286-28.013714 58.843429-25.161143 11.446857-89.161143 30.866286-127.414857-36.571429-23.990857-41.728-67.437714-45.129143-67.437715-45.129143-42.861714-0.585143-2.852571 26.843429-2.852571 26.843429 28.562286 13.129143 48.566857 64 48.566857 64 25.709714 78.299429 148.004571 52.004571 148.004572 52.004571 0 36.571429 0.585143 70.838857 0.585142 81.700572 0 11.446857-8.009143 25.161143-30.281142 21.138285C198.912 870.253714 73.216 705.682286 73.216 511.963429c0-242.285714 196.571429-438.857143 438.857143-438.857143zM239.433143 703.414857c1.133714-2.304-0.585143-5.156571-3.986286-6.838857-3.437714-1.133714-6.290286-0.585143-7.424 1.133714-1.133714 2.304 0.585143 5.156571 3.986286 6.838857 2.852571 1.718857 6.290286 1.133714 7.424-1.133714z m17.700571 19.456c2.304-1.718857 1.718857-5.705143-1.133714-9.142857-2.852571-2.852571-6.838857-3.986286-9.142857-1.718857-2.304 1.718857-1.718857 5.705143 1.133714 9.142857 2.852571 2.852571 6.838857 3.986286 9.142857 1.718857z m17.152 25.709714c2.852571-2.304 2.852571-6.838857 0-10.861714-2.304-3.986286-6.838857-5.705143-9.728-3.437714-2.852571 1.718857-2.852571 6.290286 0 10.276571s7.424 5.705143 9.728 3.986286z m23.990857 23.990858c2.304-2.304 1.133714-7.424-2.304-10.861715-3.986286-3.986286-9.142857-4.571429-11.446857-1.718857-2.852571 2.304-1.718857 7.424 2.304 10.861714 3.986286 3.986286 9.142857 4.571429 11.446857 1.718858z m32.585143 14.299428c1.133714-3.437714-2.304-7.424-7.424-9.142857-4.571429-1.133714-9.728 0.585143-10.861714 3.986286s2.304 7.424 7.424 8.557714c4.571429 1.718857 9.728 0 10.861714-3.437714z m35.986286 2.852572c0-3.986286-4.571429-6.838857-9.728-6.290286-5.156571 0-9.142857 2.852571-9.142857 6.290286 0 3.986286 3.986286 6.838857 9.728 6.290285 5.156571 0 9.142857-2.852571 9.142857-6.290285z m33.133714-5.705143c-0.585143-3.437714-5.156571-5.705143-10.276571-5.156572-5.156571 1.133714-8.557714 4.571429-8.009143 8.557715 0.585143 3.437714 5.156571 5.705143 10.276571 4.571428s8.557714-4.571429 8.009143-8.009143z" fill="#ffffff" p-id="9531"></path></svg>